<?xml version="1.0" standalone="no"?>
<!DOCTYPE svg PUBLIC "-//W3C//DTD SVG 20010904//EN"
 "http://www.w3.org/TR/2001/REC-SVG-20010904/DTD/svg10.dtd">
<svg version="1.0" xmlns="http://www.w3.org/2000/svg"
 width="168.000000pt" height="168.000000pt" viewBox="0 0 168.000000 168.000000"
 preserveAspectRatio="xMidYMid meet">
<metadata>
Created by potrace 1.14, written by Peter Selinger 2001-2017
</metadata>
<g transform="translate(0.000000,168.000000) scale(0.100000,-0.100000)"
fill="#000000" stroke="none">
<path d="M941 1570 c-21 -15 -39 -34 -40 -41 -1 -8 -4 -70 -6 -138 -2 -68 -6
-125 -8 -127 -1 -2 -102 -6 -223 -9 -495 -13 -525 -14 -542 -27 -9 -7 -19 -20
-21 -28 -3 -8 -5 -139 -6 -290 -2 -289 3 -329 43 -331 9 0 46 -2 82 -4 36 -3
127 -6 203 -9 156 -5 134 5 257 -114 94 -90 123 -110 177 -118 33 -5 50 -2 77
15 31 20 34 26 32 59 -2 20 -9 50 -15 66 -7 16 -10 35 -7 42 3 7 0 15 -7 17
-7 2 4 13 23 25 65 38 61 31 63 160 l0 52 46 1 c25 0 120 2 211 3 124 3 171 0
190 -10 14 -7 63 -49 109 -94 47 -44 88 -80 93 -80 4 0 8 218 8 485 0 455 -1
485 -17 486 -48 3 -108 7 -218 13 -66 3 -158 9 -205 12 -237 15 -257 14 -299
-16z"/>
</g>
</svg>
